Alegreya-Black.ufo
<glyph name="macron" format="2">
  <advance width="398"/>
  <unicode hex="00AF"/>
  <outline>
    <contour>
      <point x="66" y="564" type="line"/>
      <point x="66" y="564"/>
      <point x="141" y="565"/>
      <point x="200" y="565" type="curve" smooth="yes"/>
      <point x="340" y="566" type="line"/>
      <point x="358" y="675" type="line"/>
      <point x="347" y="693" type="line"/>
      <point x="347" y="693"/>
      <point x="273" y="687"/>
      <point x="223" y="687" type="curve" smooth="yes"/>
      <point x="164" y="687"/>
      <point x="69" y="688"/>
      <point x="69" y="688" type="curve"/>
      <point x="50" y="579" type="line"/>
    </contour>
  </outline>
</glyph>
<glyph name="acute" format="2">
  <advance width="398"/>
  <unicode hex="00B4"/>
  <outline>
    <contour>
      <point x="165" y="521" type="line"/>
      <point x="265" y="588"/>
      <point x="370" y="649"/>
      <point x="370" y="649" type="curve"/>
      <point x="371" y="666" type="line"/>
      <point x="294" y="763" type="line"/>
      <point x="277" y="762" type="line"/>
      <point x="277" y="762"/>
      <point x="188" y="672"/>
      <point x="99" y="586" type="curve"/>
      <point x="143" y="527" type="line"/>
    </contour>
  </outline>
</glyph>
<glyph name="Aringacute" format="2">
  <advance width="676"/>
  <unicode hex="01FA"/>
  <outline>
    <contour>
      <point x="341" y="-6" type="line"/>
      <point x="341" y="-6"/>
      <point x="437" y="-1"/>
      <point x="532" y="-1" type="curve" smooth="yes"/>
      <point x="587" y="-1"/>
      <point x="673" y="-3"/>
      <point x="673" y="-3" type="curve"/>
      <point x="681" y="76" type="line"/>
      <point x="674" y="86" type="line"/>
      <point x="643" y="89"/>
      <point x="627" y="108"/>
      <point x="615" y="153" type="curve" smooth="yes"/>
      <point x="586" y="261"/>
      <point x="490" y="646"/>
      <point x="490" y="646" type="curve"/>
      <point x="475" y="658" type="line"/>
      <point x="212" y="642" type="line"/>
      <point x="53" y="140" type="line"/>
      <point x="43" y="109"/>
      <point x="26" y="91"/>
      <point x="2" y="85" type="curve"/>
      <point x="-5" y="-2" type="line"/>
      <point x="-5" y="-2"/>
      <point x="66" y="-1"/>
      <point x="128" y="-1" type="curve" smooth="yes"/>
      <point x="189" y="-1"/>
      <point x="282" y="-4"/>
      <point x="282" y="-4" type="curve"/>
      <point x="290" y="79" type="line"/>
      <point x="282" y="89" type="line"/>
      <point x="256" y="89" type="line"/>
      <point x="229" y="89"/>
      <point x="225" y="92"/>
      <point x="225" y="109" type="curve" smooth="yes"/>
      <point x="225" y="113"/>
      <point x="226" y="120"/>
      <point x="228" y="131" type="curve" smooth="yes"/>
      <point x="238" y="175" type="line"/>
      <point x="264" y="177"/>
      <point x="295" y="180"/>
      <point x="318" y="180" type="curve" smooth="yes"/>
      <point x="337" y="180"/>
      <point x="368" y="179"/>
      <point x="395" y="178" type="curve"/>
      <point x="401" y="139" type="line"/>
      <point x="402" y="131"/>
      <point x="403" y="125"/>
      <point x="403" y="121" type="curve" smooth="yes"/>
      <point x="403" y="95"/>
      <point x="400" y="94"/>
      <point x="339" y="87" type="curve"/>
      <point x="333" y="3" type="line"/>
    </contour>
    <contour>
      <point x="270" y="301" type="line"/>
      <point x="317" y="478" type="line"/>
      <point x="339" y="478" type="line"/>
      <point x="373" y="303" type="line"/>
      <point x="355" y="302"/>
      <point x="336" y="301"/>
      <point x="321" y="301" type="curve" smooth="yes"/>
    </contour>
    <contour>
      <point x="338" y="678" type="curve" smooth="yes"/>
      <point x="402" y="678"/>
      <point x="438" y="726"/>
      <point x="438" y="779" type="curve" smooth="yes"/>
      <point x="438" y="824"/>
      <point x="412" y="867"/>
      <point x="346" y="867" type="curve" smooth="yes"/>
      <point x="285" y="867"/>
      <point x="247" y="825"/>
      <point x="247" y="771" type="curve" smooth="yes"/>
      <point x="247" y="716"/>
      <point x="279" y="678"/>
    </contour>
    <contour>
      <point x="344" y="741" type="curve" smooth="yes"/>
      <point x="330" y="741"/>
      <point x="309" y="748"/>
      <point x="309" y="773" type="curve" smooth="yes"/>
      <point x="309" y="790"/>
      <point x="319" y="802"/>
      <point x="340" y="802" type="curve" smooth="yes"/>
      <point x="363" y="802"/>
      <point x="375" y="790"/>
      <point x="375" y="771" type="curve" smooth="yes"/>
      <point x="375" y="746"/>
      <point x="356" y="741"/>
    </contour>
    <contour>
      <point x="241" y="851" type="line"/>
      <point x="353" y="879"/>
      <point x="470" y="900"/>
      <point x="470" y="900" type="curve"/>
      <point x="476" y="915" type="line"/>
      <point x="444" y="1012" type="line"/>
      <point x="429" y="1017" type="line"/>
      <point x="429" y="1017"/>
      <point x="316" y="968"/>
      <point x="205" y="927" type="curve"/>
      <point x="224" y="863" type="line"/>
    </contour>
  </outline>
</glyph>
<glyph name="aringacute" format="2">
  <advance width="494"/>
  <unicode hex="01FB"/>
  <outline>
    <contour>
      <point x="394" y="-12" type="curve"/>
      <point x="428" y="-5"/>
      <point x="476" y="61"/>
      <point x="502" y="109" type="curve"/>
      <point x="485" y="136" type="line"/>
      <point x="477" y="133"/>
      <point x="463" y="128"/>
      <point x="451" y="128" type="curve" smooth="yes"/>
      <point x="434" y="128"/>
      <point x="422" y="142"/>
      <point x="422" y="162" type="curve" smooth="yes"/>
      <point x="422" y="190"/>
      <point x="444" y="307"/>
      <point x="444" y="339" type="curve" smooth="yes"/>
      <point x="444" y="412"/>
      <point x="397" y="484"/>
      <point x="245" y="484" type="curve" smooth="yes"/>
      <point x="207" y="484"/>
      <point x="104" y="437"/>
      <point x="37" y="401" type="curve"/>
      <point x="62" y="321" type="line"/>
      <point x="74" y="315" type="line"/>
      <point x="101" y="333"/>
      <point x="151" y="358"/>
      <point x="189" y="358" type="curve" smooth="yes"/>
      <point x="240" y="358"/>
      <point x="271" y="331"/>
      <point x="271" y="286" type="curve"/>
      <point x="271" y="285" type="line"/>
      <point x="75" y="249" type="line" smooth="yes"/>
      <point x="37" y="241"/>
      <point x="11" y="206"/>
      <point x="11" y="162" type="curve" smooth="yes"/>
      <point x="11" y="67"/>
      <point x="76" y="-8"/>
      <point x="158" y="-8" type="curve" smooth="yes"/>
      <point x="189" y="-8"/>
      <point x="238" y="34"/>
      <point x="269" y="66" type="curve"/>
      <point x="281" y="61" type="line"/>
      <point x="287" y="14"/>
      <point x="328" y="-12"/>
    </contour>
    <contour>
      <point x="219" y="120" type="curve" smooth="yes"/>
      <point x="194" y="120"/>
      <point x="179" y="143"/>
      <point x="179" y="174" type="curve" smooth="yes"/>
      <point x="179" y="188"/>
      <point x="183" y="193"/>
      <point x="197" y="196" type="curve" smooth="yes"/>
      <point x="269" y="212" type="line"/>
      <point x="268" y="126" type="line"/>
      <point x="254" y="123"/>
      <point x="234" y="120"/>
    </contour>
    <contour>
      <point x="250" y="504" type="curve" smooth="yes"/>
      <point x="314" y="504"/>
      <point x="350" y="552"/>
      <point x="350" y="605" type="curve" smooth="yes"/>
      <point x="350" y="650"/>
      <point x="324" y="693"/>
      <point x="258" y="693" type="curve" smooth="yes"/>
      <point x="197" y="693"/>
      <point x="159" y="651"/>
      <point x="159" y="597" type="curve" smooth="yes"/>
      <point x="159" y="542"/>
      <point x="191" y="504"/>
    </contour>
    <contour>
      <point x="256" y="567" type="curve" smooth="yes"/>
      <point x="242" y="567"/>
      <point x="221" y="574"/>
      <point x="221" y="599" type="curve" smooth="yes"/>
      <point x="221" y="616"/>
      <point x="231" y="628"/>
      <point x="252" y="628" type="curve" smooth="yes"/>
      <point x="275" y="628"/>
      <point x="287" y="616"/>
      <point x="287" y="597" type="curve" smooth="yes"/>
      <point x="287" y="572"/>
      <point x="268" y="567"/>
    </contour>
    <contour>
      <point x="153" y="679" type="line"/>
      <point x="265" y="707"/>
      <point x="382" y="728"/>
      <point x="382" y="728" type="curve"/>
      <point x="388" y="743" type="line"/>
      <point x="356" y="840" type="line"/>
      <point x="341" y="845" type="line"/>
      <point x="341" y="845"/>
      <point x="228" y="796"/>
      <point x="117" y="755" type="curve"/>
      <point x="136" y="691" type="line"/>
    </contour>
  </outline>
</glyph>
<glyph name="schwa" format="2">
  <advance width="479"/>
  <unicode hex="0259"/>
  <outline>
    <contour>
      <point x="220" y="484" type="curve" smooth="yes"/>
      <point x="156" y="484"/>
      <point x="73" y="438"/>
      <point x="28" y="403" type="curve"/>
      <point x="50" y="329" type="line"/>
      <point x="59" y="324" type="line"/>
      <point x="186" y="379"/>
      <point x="268" y="357"/>
      <point x="276" y="264" type="curve"/>
      <point x="39" y="264" type="line"/>
      <point x="28" y="254" type="line"/>
      <point x="25" y="240"/>
      <point x="20" y="212"/>
      <point x="20" y="188" type="curve" smooth="yes"/>
      <point x="20" y="54"/>
      <point x="83" y="-12"/>
      <point x="210" y="-12" type="curve" smooth="yes"/>
      <point x="365" y="-12"/>
      <point x="465" y="88"/>
      <point x="465" y="242" type="curve" smooth="yes"/>
      <point x="465" y="397"/>
      <point x="377" y="484"/>
    </contour>
    <contour>
      <point x="281" y="188" type="line"/>
      <point x="281" y="124"/>
      <point x="266" y="99"/>
      <point x="226" y="99" type="curve" smooth="yes"/>
      <point x="199" y="99"/>
      <point x="186" y="120"/>
      <point x="186" y="164" type="curve" smooth="yes"/>
      <point x="186" y="178"/>
      <point x="188" y="181"/>
      <point x="198" y="182" type="curve" smooth="yes"/>
    </contour>
  </outline>
</glyph>
<glyph name="caron" format="2">
  <advance width="398"/>
  <unicode hex="02C7"/>
  <outline>
    <contour>
      <point x="184" y="515" type="curve"/>
      <point x="211" y="515" type="line"/>
      <point x="211" y="515"/>
      <point x="299" y="602"/>
      <point x="378" y="671" type="curve"/>
      <point x="332" y="733" type="line"/>
      <point x="309" y="740" type="line"/>
      <point x="270" y="713"/>
      <point x="224" y="686"/>
      <point x="198" y="671" type="curve"/>
      <point x="172" y="686"/>
      <point x="125" y="713"/>
      <point x="86" y="740" type="curve"/>
      <point x="63" y="733" type="line"/>
      <point x="18" y="671" type="line"/>
      <point x="96" y="602"/>
      <point x="184" y="515"/>
    </contour>
  </outline>
</glyph>
<glyph name="breve" format="2">
  <advance width="398"/>
  <unicode hex="02D8"/>
  <outline>
    <contour>
      <point x="199" y="517" type="curve" smooth="yes"/>
      <point x="301" y="517"/>
      <point x="356" y="585"/>
      <point x="377" y="653" type="curve"/>
      <point x="337" y="715" type="line"/>
      <point x="310" y="722" type="line"/>
      <point x="290" y="675"/>
      <point x="248" y="652"/>
      <point x="199" y="652" type="curve" smooth="yes"/>
      <point x="150" y="652"/>
      <point x="108" y="675"/>
      <point x="88" y="722" type="curve"/>
      <point x="61" y="715" type="line"/>
      <point x="21" y="653" type="line"/>
      <point x="42" y="585"/>
      <point x="97" y="517"/>
    </contour>
  </outline>
</glyph>
<glyph name="dotaccent" format="2">
  <advance width="398"/>
  <unicode hex="02D9"/>
  <outline>
    <contour>
      <point x="195" y="530" type="curve" smooth="yes"/>
      <point x="257" y="530"/>
      <point x="296" y="570"/>
      <point x="296" y="634" type="curve" smooth="yes"/>
      <point x="296" y="694"/>
      <point x="262" y="729"/>
      <point x="203" y="729" type="curve" smooth="yes"/>
      <point x="140" y="729"/>
      <point x="101" y="689"/>
      <point x="101" y="625" type="curve" smooth="yes"/>
      <point x="101" y="564"/>
      <point x="134" y="530"/>
    </contour>
  </outline>
</glyph>
<glyph name="ogonek" format="2">
  <advance width="398"/>
  <unicode hex="02DB"/>
  <outline>
    <contour>
      <point x="198" y="-242" type="curve"/>
      <point x="227" y="-238"/>
      <point x="263" y="-214"/>
      <point x="311" y="-167" type="curve"/>
      <point x="278" y="-115" type="line"/>
      <point x="257" y="-129"/>
      <point x="235" y="-138"/>
      <point x="219" y="-138" type="curve" smooth="yes"/>
      <point x="205" y="-138"/>
      <point x="197" y="-130"/>
      <point x="197" y="-116" type="curve" smooth="yes"/>
      <point x="197" y="-92"/>
      <point x="215" y="-54"/>
      <point x="272" y="42" type="curve"/>
      <point x="190" y="42" type="line"/>
      <point x="90" y="-74"/>
      <point x="73" y="-100"/>
      <point x="73" y="-138" type="curve" smooth="yes"/>
      <point x="73" y="-199"/>
      <point x="125" y="-242"/>
    </contour>
  </outline>
</glyph>
<glyph name="hungarumlaut" format="2">
  <advance width="406"/>
  <unicode hex="02DD"/>
  <outline>
    <contour>
      <point x="392" y="677" type="curve"/>
      <point x="389" y="691" type="line"/>
      <point x="305" y="754" type="line"/>
      <point x="291" y="749" type="line"/>
      <point x="291" y="749"/>
      <point x="238" y="656"/>
      <point x="183" y="566" type="curve"/>
      <point x="232" y="528" type="line"/>
      <point x="251" y="528" type="line"/>
      <point x="319" y="604"/>
      <point x="392" y="677"/>
    </contour>
    <contour>
      <point x="229" y="677" type="curve"/>
      <point x="226" y="691" type="line"/>
      <point x="142" y="754" type="line"/>
      <point x="128" y="749" type="line"/>
      <point x="128" y="749"/>
      <point x="75" y="656"/>
      <point x="20" y="566" type="curve"/>
      <point x="69" y="528" type="line"/>
      <point x="88" y="528" type="line"/>
      <point x="156" y="604"/>
      <point x="229" y="677"/>
    </contour>
  </outline>
</glyph>
<glyph name="dialytikaperispomeni" format="2">
  <advance width="458"/>
  <unicode hex="1FC1"/>
  <anchor x="226" y="472" name="_top"/>
  <outline>
    <contour>
      <point x="312" y="518" type="curve" smooth="yes"/>
      <point x="352" y="518"/>
      <point x="377" y="543"/>
      <point x="377" y="583" type="curve" smooth="yes"/>
      <point x="377" y="622"/>
      <point x="355" y="643"/>
      <point x="317" y="643" type="curve" smooth="yes"/>
      <point x="277" y="643"/>
      <point x="252" y="618"/>
      <point x="252" y="578" type="curve" smooth="yes"/>
      <point x="252" y="538"/>
      <point x="273" y="518"/>
    </contour>
    <contour>
      <point x="152" y="518" type="curve" smooth="yes"/>
      <point x="192" y="518"/>
      <point x="217" y="543"/>
      <point x="217" y="583" type="curve" smooth="yes"/>
      <point x="217" y="622"/>
      <point x="195" y="643"/>
      <point x="158" y="643" type="curve" smooth="yes"/>
      <point x="118" y="643"/>
      <point x="93" y="618"/>
      <point x="93" y="578" type="curve" smooth="yes"/>
      <point x="93" y="538"/>
      <point x="113" y="518"/>
    </contour>
    <contour>
      <point x="103" y="653" type="line"/>
      <point x="119" y="653" type="line"/>
      <point x="119" y="653"/>
      <point x="155" y="707"/>
      <point x="179" y="708" type="curve" smooth="yes"/>
      <point x="202" y="708"/>
      <point x="279" y="681"/>
      <point x="307" y="682" type="curve"/>
      <point x="324" y="686" type="line"/>
      <point x="396" y="792" type="line"/>
      <point x="395" y="806" type="line"/>
      <point x="334" y="853" type="line"/>
      <point x="318" y="852" type="line"/>
      <point x="318" y="852"/>
      <point x="281" y="799"/>
      <point x="258" y="798" type="curve" smooth="yes"/>
      <point x="235" y="797"/>
      <point x="157" y="825"/>
      <point x="130" y="824" type="curve"/>
      <point x="113" y="820" type="line"/>
      <point x="42" y="713" type="line"/>
      <point x="42" y="699" type="line"/>
    </contour>
  </outline>
</glyph>
<glyph name="psilivaria" format="2">
  <advance width="458"/>
  <unicode hex="1FCD"/>
  <guideline x="272" y="771" angle="0"/>
  <guideline x="269" y="508" angle="0"/>
  <anchor x="226" y="472" name="_top"/>
  <anchor x="223" y="764" name="top"/>
  <outline>
    <contour>
      <point x="330" y="509" type="line"/>
      <point x="394" y="529" type="line"/>
      <point x="386" y="600"/>
      <point x="384" y="679"/>
      <point x="378" y="754" type="curve"/>
      <point x="366" y="764" type="line"/>
      <point x="249" y="735" type="line"/>
      <point x="241" y="721" type="line"/>
      <point x="309" y="518" type="line"/>
    </contour>
    <contour>
      <point x="115" y="503" type="line"/>
      <point x="186" y="557"/>
      <point x="225" y="624"/>
      <point x="220" y="682" type="curve" smooth="yes"/>
      <point x="216" y="728"/>
      <point x="185" y="755"/>
      <point x="141" y="751" type="curve" smooth="yes"/>
      <point x="116" y="749"/>
      <point x="73" y="724"/>
      <point x="52" y="700" type="curve"/>
      <point x="52" y="689" type="line"/>
      <point x="79" y="673"/>
      <point x="94" y="654"/>
      <point x="96" y="632" type="curve" smooth="yes"/>
      <point x="98" y="606"/>
      <point x="85" y="577"/>
      <point x="59" y="548" type="curve"/>
      <point x="63" y="528" type="line"/>
    </contour>
  </outline>
</glyph>
<glyph name="psilioxia" format="2">
  <advance width="458"/>
  <unicode hex="1FCE"/>
  <guideline x="269" y="508" angle="0"/>
  <anchor x="226" y="472" name="_top"/>
  <anchor x="271" y="765" name="top"/>
  <outline>
    <contour>
      <point x="337" y="508" type="line"/>
      <point x="359" y="515" type="line"/>
      <point x="449" y="710" type="line"/>
      <point x="441" y="724" type="line"/>
      <point x="329" y="765" type="line"/>
      <point x="315" y="757" type="line"/>
      <point x="304" y="683"/>
      <point x="291" y="605"/>
      <point x="276" y="535" type="curve"/>
    </contour>
    <contour>
      <point x="156" y="505" type="line"/>
      <point x="227" y="559"/>
      <point x="266" y="626"/>
      <point x="261" y="684" type="curve" smooth="yes"/>
      <point x="257" y="730"/>
      <point x="226" y="757"/>
      <point x="182" y="753" type="curve" smooth="yes"/>
      <point x="157" y="751"/>
      <point x="114" y="726"/>
      <point x="93" y="702" type="curve"/>
      <point x="93" y="691" type="line"/>
      <point x="120" y="675"/>
      <point x="135" y="656"/>
      <point x="137" y="634" type="curve" smooth="yes"/>
      <point x="139" y="608"/>
      <point x="126" y="579"/>
      <point x="100" y="550" type="curve"/>
      <point x="104" y="530" type="line"/>
    </contour>
  </outline>
</glyph>
<glyph name="psiliperispomeni" format="2">
  <advance width="458"/>
  <unicode hex="1FCF"/>
  <anchor x="226" y="472" name="_top"/>
  <anchor x="246" y="883" name="top"/>
  <outline>
    <contour>
      <point x="234" y="494" type="line"/>
      <point x="295" y="532"/>
      <point x="335" y="583"/>
      <point x="335" y="629" type="curve" smooth="yes"/>
      <point x="335" y="666"/>
      <point x="308" y="691"/>
      <point x="272" y="691" type="curve" smooth="yes"/>
      <point x="252" y="691"/>
      <point x="214" y="674"/>
      <point x="196" y="655" type="curve"/>
      <point x="195" y="647" type="line"/>
      <point x="216" y="631"/>
      <point x="226" y="613"/>
      <point x="226" y="595" type="curve" smooth="yes"/>
      <point x="226" y="575"/>
      <point x="214" y="554"/>
      <point x="192" y="533" type="curve"/>
      <point x="193" y="517" type="line"/>
    </contour>
    <contour>
      <point x="143" y="684" type="line"/>
      <point x="157" y="685" type="line"/>
      <point x="157" y="685"/>
      <point x="189" y="738"/>
      <point x="211" y="739" type="curve" smooth="yes"/>
      <point x="232" y="740"/>
      <point x="301" y="712"/>
      <point x="326" y="713" type="curve"/>
      <point x="341" y="717" type="line"/>
      <point x="405" y="822" type="line"/>
      <point x="405" y="837" type="line"/>
      <point x="350" y="883" type="line"/>
      <point x="335" y="883" type="line"/>
      <point x="335" y="883"/>
      <point x="302" y="830"/>
      <point x="282" y="829" type="curve" smooth="yes"/>
      <point x="261" y="828"/>
      <point x="191" y="856"/>
      <point x="166" y="855" type="curve"/>
      <point x="151" y="851" type="line"/>
      <point x="87" y="745" type="line"/>
      <point x="88" y="731" type="line"/>
    </contour>
  </outline>
</glyph>
<glyph name="dasiaperispomeni" format="2">
  <advance width="458"/>
  <unicode hex="1FDF"/>
  <outline>
    <contour>
      <point x="269" y="495" type="curve"/>
      <point x="310" y="518" type="line"/>
      <point x="311" y="534" type="line"/>
      <point x="289" y="555"/>
      <point x="277" y="576"/>
      <point x="277" y="596" type="curve" smooth="yes"/>
      <point x="277" y="614"/>
      <point x="287" y="632"/>
      <point x="308" y="648" type="curve"/>
      <point x="307" y="656" type="line"/>
      <point x="289" y="675"/>
      <point x="251" y="692"/>
      <point x="231" y="692" type="curve" smooth="yes"/>
      <point x="195" y="692"/>
      <point x="168" y="667"/>
      <point x="168" y="630" type="curve" smooth="yes"/>
      <point x="168" y="584"/>
      <point x="208" y="533"/>
    </contour>
    <contour>
      <point x="127" y="684" type="line"/>
      <point x="141" y="685" type="line"/>
      <point x="141" y="685"/>
      <point x="173" y="738"/>
      <point x="195" y="739" type="curve" smooth="yes"/>
      <point x="216" y="740"/>
      <point x="285" y="712"/>
      <point x="310" y="713" type="curve"/>
      <point x="325" y="717" type="line"/>
      <point x="389" y="822" type="line"/>
      <point x="389" y="837" type="line"/>
      <point x="334" y="883" type="line"/>
      <point x="319" y="883" type="line"/>
      <point x="319" y="883"/>
      <point x="286" y="830"/>
      <point x="266" y="829" type="curve" smooth="yes"/>
      <point x="245" y="828"/>
      <point x="175" y="856"/>
      <point x="150" y="855" type="curve"/>
      <point x="135" y="851" type="line"/>
      <point x="71" y="745" type="line"/>
      <point x="72" y="731" type="line"/>
    </contour>
  </outline>
</glyph>
<glyph name="aringacute.sc" format="2">
  <advance width="586"/>
  <outline>
    <contour>
      <point x="291" y="-4" type="line"/>
      <point x="291" y="-4"/>
      <point x="374" y="-1"/>
      <point x="455" y="-1" type="curve" smooth="yes"/>
      <point x="502" y="-1"/>
      <point x="575" y="-2"/>
      <point x="575" y="-2" type="curve"/>
      <point x="582" y="64" type="line"/>
      <point x="576" y="73" type="line"/>
      <point x="553" y="75"/>
      <point x="540" y="90"/>
      <point x="531" y="125" type="curve" smooth="yes"/>
      <point x="512" y="192"/>
      <point x="431" y="502"/>
      <point x="431" y="502" type="curve"/>
      <point x="418" y="513" type="line"/>
      <point x="177" y="500" type="line"/>
      <point x="49" y="111" type="line"/>
      <point x="42" y="91"/>
      <point x="28" y="77"/>
      <point x="10" y="72" type="curve"/>
      <point x="4" y="-1" type="line"/>
      <point x="4" y="-1"/>
      <point x="64" y="-1"/>
      <point x="117" y="-1" type="curve" smooth="yes"/>
      <point x="167" y="-1"/>
      <point x="247" y="-3"/>
      <point x="247" y="-3" type="curve"/>
      <point x="254" y="67" type="line"/>
      <point x="246" y="76" type="line"/>
      <point x="228" y="76" type="line"/>
      <point x="207" y="76"/>
      <point x="206" y="77"/>
      <point x="206" y="89" type="curve" smooth="yes"/>
      <point x="206" y="91"/>
      <point x="206" y="96"/>
      <point x="207" y="103" type="curve" smooth="yes"/>
      <point x="213" y="129" type="line"/>
      <point x="235" y="130"/>
      <point x="259" y="132"/>
      <point x="276" y="132" type="curve" smooth="yes"/>
      <point x="291" y="132"/>
      <point x="314" y="132"/>
      <point x="337" y="131" type="curve"/>
      <point x="339" y="110" type="line"/>
      <point x="339" y="106"/>
      <point x="340" y="103"/>
      <point x="340" y="101" type="curve" smooth="yes"/>
      <point x="340" y="80"/>
      <point x="339" y="81"/>
      <point x="289" y="75" type="curve"/>
      <point x="284" y="3" type="line"/>
    </contour>
    <contour>
      <point x="241" y="238" type="line"/>
      <point x="275" y="363" type="line"/>
      <point x="294" y="363" type="line"/>
      <point x="318" y="239" type="line"/>
      <point x="303" y="238"/>
      <point x="290" y="238"/>
      <point x="279" y="238" type="curve" smooth="yes"/>
    </contour>
    <contour>
      <point x="287" y="534" type="curve" smooth="yes"/>
      <point x="351" y="534"/>
      <point x="387" y="582"/>
      <point x="387" y="635" type="curve" smooth="yes"/>
      <point x="387" y="680"/>
      <point x="361" y="723"/>
      <point x="295" y="723" type="curve" smooth="yes"/>
      <point x="234" y="723"/>
      <point x="196" y="681"/>
      <point x="196" y="627" type="curve" smooth="yes"/>
      <point x="196" y="572"/>
      <point x="228" y="534"/>
    </contour>
    <contour>
      <point x="293" y="597" type="curve" smooth="yes"/>
      <point x="279" y="597"/>
      <point x="258" y="604"/>
      <point x="258" y="629" type="curve" smooth="yes"/>
      <point x="258" y="646"/>
      <point x="268" y="658"/>
      <point x="289" y="658" type="curve" smooth="yes"/>
      <point x="312" y="658"/>
      <point x="324" y="646"/>
      <point x="324" y="627" type="curve" smooth="yes"/>
      <point x="324" y="602"/>
      <point x="305" y="597"/>
    </contour>
    <contour>
      <point x="186" y="707" type="line"/>
      <point x="298" y="735"/>
      <point x="415" y="756"/>
      <point x="415" y="756" type="curve"/>
      <point x="421" y="771" type="line"/>
      <point x="389" y="868" type="line"/>
      <point x="374" y="873" type="line"/>
      <point x="374" y="873"/>
      <point x="261" y="824"/>
      <point x="150" y="783" type="curve"/>
      <point x="169" y="719" type="line"/>
    </contour>
  </outline>
</glyph>
<glyph name="dasiaperispomeni.case" format="2">
  <advance width="458"/>
  <anchor x="226" y="472" name="_top"/>
  <anchor x="246" y="723" name="_topleft"/>
  <anchor x="230" y="883" name="top"/>
  <outline>
    <contour>
      <point x="269" y="492" type="curve"/>
      <point x="289" y="495" type="line"/>
      <point x="317" y="538" type="line"/>
      <point x="295" y="559"/>
      <point x="281" y="582"/>
      <point x="281" y="603" type="curve" smooth="yes"/>
      <point x="281" y="622"/>
      <point x="292" y="638"/>
      <point x="318" y="648" type="curve"/>
      <point x="318" y="657" type="line"/>
      <point x="294" y="680"/>
      <point x="255" y="691"/>
      <point x="230" y="691" type="curve" smooth="yes"/>
      <point x="188" y="691"/>
      <point x="159" y="650"/>
      <point x="159" y="615" type="curve" smooth="yes"/>
      <point x="159" y="571"/>
      <point x="205" y="530"/>
    </contour>
    <contour>
      <point x="127" y="684" type="line"/>
      <point x="141" y="685" type="line"/>
      <point x="141" y="685"/>
      <point x="173" y="738"/>
      <point x="195" y="739" type="curve" smooth="yes"/>
      <point x="216" y="740"/>
      <point x="285" y="712"/>
      <point x="310" y="713" type="curve"/>
      <point x="325" y="717" type="line"/>
      <point x="389" y="822" type="line"/>
      <point x="389" y="837" type="line"/>
      <point x="334" y="883" type="line"/>
      <point x="319" y="883" type="line"/>
      <point x="319" y="883"/>
      <point x="286" y="830"/>
      <point x="266" y="829" type="curve" smooth="yes"/>
      <point x="245" y="828"/>
      <point x="175" y="856"/>
      <point x="150" y="855" type="curve"/>
      <point x="135" y="851" type="line"/>
      <point x="71" y="745" type="line"/>
      <point x="72" y="731" type="line"/>
    </contour>
  </outline>
</glyph>
<glyph name="dotaccentcomb_macroncomb.case" format="2">
  <anchor x="199" y="647" name="_top"/>
  <anchor x="199" y="1012" name="top"/>
  <outline>
    <contour>
      <point x="196" y="676" type="curve" smooth="yes"/>
      <point x="251" y="676"/>
      <point x="285" y="711"/>
      <point x="285" y="768" type="curve" smooth="yes"/>
      <point x="285" y="822"/>
      <point x="255" y="853"/>
      <point x="203" y="853" type="curve" smooth="yes"/>
      <point x="147" y="853"/>
      <point x="112" y="817"/>
      <point x="112" y="760" type="curve" smooth="yes"/>
      <point x="112" y="706"/>
      <point x="141" y="676"/>
    </contour>
    <contour>
      <point x="61" y="883" type="line"/>
      <point x="61" y="883"/>
      <point x="136" y="884"/>
      <point x="195" y="884" type="curve" smooth="yes"/>
      <point x="335" y="885" type="line"/>
      <point x="353" y="994" type="line"/>
      <point x="342" y="1012" type="line"/>
      <point x="342" y="1012"/>
      <point x="268" y="1006"/>
      <point x="218" y="1006" type="curve" smooth="yes"/>
      <point x="159" y="1006"/>
      <point x="64" y="1007"/>
      <point x="64" y="1007" type="curve"/>
      <point x="45" y="898" type="line"/>
    </contour>
  </outline>
</glyph>
<glyph name="dotaccentcomb_macroncomb" format="2">
  <anchor x="199" y="472" name="_top"/>
  <anchor x="199" y="853" name="top"/>
  <outline>
    <contour>
      <point x="196" y="502" type="curve" smooth="yes"/>
      <point x="251" y="502"/>
      <point x="285" y="537"/>
      <point x="285" y="594" type="curve" smooth="yes"/>
      <point x="285" y="648"/>
      <point x="255" y="679"/>
      <point x="203" y="679" type="curve" smooth="yes"/>
      <point x="147" y="679"/>
      <point x="112" y="643"/>
      <point x="112" y="586" type="curve" smooth="yes"/>
      <point x="112" y="532"/>
      <point x="141" y="502"/>
    </contour>
    <contour>
      <point x="61" y="709" type="line"/>
      <point x="61" y="709"/>
      <point x="136" y="710"/>
      <point x="195" y="710" type="curve" smooth="yes"/>
      <point x="335" y="711" type="line"/>
      <point x="353" y="820" type="line"/>
      <point x="342" y="838" type="line"/>
      <point x="342" y="838"/>
      <point x="268" y="832"/>
      <point x="218" y="832" type="curve" smooth="yes"/>
      <point x="159" y="832"/>
      <point x="64" y="833"/>
      <point x="64" y="833" type="curve"/>
      <point x="45" y="724" type="line"/>
    </contour>
  </outline>
</glyph>
<glyph name="exclamdown.sc" format="2">
  <advance width="285"/>
  <outline>
    <contour>
      <point x="184" y="324" type="line"/>
      <point x="88" y="311" type="line"/>
      <point x="38" y="9" type="line"/>
      <point x="59" y="-12" type="line"/>
      <point x="214" y="9" type="line"/>
      <point x="228" y="29" type="line"/>
      <point x="201" y="308" type="line"/>
    </contour>
    <contour>
      <point x="156" y="512" type="curve" smooth="yes"/>
      <point x="99" y="512"/>
      <point x="65" y="482"/>
      <point x="65" y="429" type="curve" smooth="yes"/>
      <point x="65" y="379"/>
      <point x="94" y="351"/>
      <point x="148" y="352" type="curve" smooth="yes"/>
      <point x="203" y="353"/>
      <point x="237" y="383"/>
      <point x="238" y="435" type="curve" smooth="yes"/>
      <point x="239" y="485"/>
      <point x="209" y="512"/>
    </contour>
  </outline>
</glyph>
<glyph name="ldot.sc" format="2">
  <advance width="544"/>
  <outline>
    <contour>
      <point x="12" y="-8" type="line"/>
      <point x="12" y="-8"/>
      <point x="107" y="0"/>
      <point x="195" y="0" type="curve" smooth="yes"/>
      <point x="319" y="0"/>
      <point x="442" y="-5"/>
      <point x="442" y="-5" type="curve"/>
      <point x="456" y="9" type="line"/>
      <point x="463" y="122"/>
      <point x="475" y="227"/>
      <point x="475" y="227" type="curve"/>
      <point x="464" y="240" type="line"/>
      <point x="349" y="229" type="line"/>
      <point x="344" y="123"/>
      <point x="330" y="99"/>
      <point x="276" y="99" type="curve" smooth="yes"/>
      <point x="259" y="99"/>
      <point x="250" y="109"/>
      <point x="250" y="128" type="curve" smooth="yes"/>
      <point x="250" y="255"/>
      <point x="254" y="324"/>
      <point x="259" y="389" type="curve" smooth="yes"/>
      <point x="260" y="412"/>
      <point x="276" y="419"/>
      <point x="334" y="424" type="curve"/>
      <point x="344" y="507" type="line"/>
      <point x="344" y="507"/>
      <point x="201" y="504"/>
      <point x="161" y="504" type="curve" smooth="yes"/>
      <point x="114" y="504"/>
      <point x="73" y="504"/>
      <point x="22" y="504" type="curve"/>
      <point x="15" y="441" type="line"/>
      <point x="24" y="429" type="line"/>
      <point x="24" y="429"/>
      <point x="35" y="429"/>
      <point x="44" y="429" type="curve" smooth="yes"/>
      <point x="67" y="429"/>
      <point x="73" y="422"/>
      <point x="73" y="390" type="curve" smooth="yes"/>
      <point x="73" y="139" type="line" smooth="yes"/>
      <point x="73" y="92"/>
      <point x="61" y="76"/>
      <point x="20" y="70" type="curve"/>
    </contour>
    <contour>
      <point x="432" y="291" type="curve" smooth="yes"/>
      <point x="488" y="291"/>
      <point x="523" y="328"/>
      <point x="523" y="385" type="curve" smooth="yes"/>
      <point x="523" y="440"/>
      <point x="492" y="471"/>
      <point x="439" y="471" type="curve" smooth="yes"/>
      <point x="382" y="471"/>
      <point x="347" y="435"/>
      <point x="347" y="377" type="curve" smooth="yes"/>
      <point x="347" y="322"/>
      <point x="377" y="291"/>
    </contour>
    <component base="periodcentered" xScale="0.903" yScale="0.905" xOffset="328" yOffset="152"/>
  </outline>
</glyph>
<glyph name="psilioxia.case" format="2">
  <advance width="458"/>
  <guideline x="269" y="508" angle="0"/>
  <anchor x="226" y="472" name="_top"/>
  <anchor x="336" y="723" name="_topleft"/>
  <anchor x="241" y="765" name="top"/>
  <outline>
    <contour>
      <point x="318" y="508" type="line"/>
      <point x="340" y="515" type="line"/>
      <point x="430" y="710" type="line"/>
      <point x="422" y="724" type="line"/>
      <point x="310" y="765" type="line"/>
      <point x="296" y="757" type="line"/>
      <point x="285" y="683"/>
      <point x="272" y="605"/>
      <point x="257" y="535" type="curve"/>
    </contour>
    <contour>
      <point x="114" y="505" type="line"/>
      <point x="185" y="559"/>
      <point x="224" y="626"/>
      <point x="219" y="684" type="curve" smooth="yes"/>
      <point x="215" y="730"/>
      <point x="184" y="757"/>
      <point x="140" y="753" type="curve" smooth="yes"/>
      <point x="115" y="751"/>
      <point x="72" y="726"/>
      <point x="51" y="702" type="curve"/>
      <point x="51" y="691" type="line"/>
      <point x="78" y="675"/>
      <point x="93" y="656"/>
      <point x="95" y="634" type="curve" smooth="yes"/>
      <point x="97" y="608"/>
      <point x="84" y="579"/>
      <point x="58" y="550" type="curve"/>
      <point x="62" y="530" type="line"/>
    </contour>
  </outline>
</glyph>
<glyph name="psiliperispomeni.case" format="2">
  <advance width="458"/>
  <anchor x="226" y="472" name="_top"/>
  <anchor x="269" y="723" name="_topleft"/>
  <anchor x="246" y="883" name="top"/>
  <outline>
    <contour>
      <point x="236" y="491" type="line"/>
      <point x="300" y="529"/>
      <point x="346" y="569"/>
      <point x="346" y="612" type="curve" smooth="yes"/>
      <point x="346" y="647"/>
      <point x="318" y="691"/>
      <point x="276" y="691" type="curve" smooth="yes"/>
      <point x="251" y="691"/>
      <point x="211" y="678"/>
      <point x="187" y="655" type="curve"/>
      <point x="187" y="647" type="line"/>
      <point x="212" y="635"/>
      <point x="223" y="619"/>
      <point x="223" y="600" type="curve" smooth="yes"/>
      <point x="223" y="581"/>
      <point x="210" y="558"/>
      <point x="188" y="537" type="curve"/>
      <point x="190" y="520" type="line"/>
    </contour>
    <contour>
      <point x="143" y="684" type="line"/>
      <point x="157" y="685" type="line"/>
      <point x="157" y="685"/>
      <point x="189" y="738"/>
      <point x="211" y="739" type="curve" smooth="yes"/>
      <point x="232" y="740"/>
      <point x="301" y="712"/>
      <point x="326" y="713" type="curve"/>
      <point x="341" y="717" type="line"/>
      <point x="405" y="822" type="line"/>
      <point x="405" y="837" type="line"/>
      <point x="350" y="883" type="line"/>
      <point x="335" y="883" type="line"/>
      <point x="335" y="883"/>
      <point x="302" y="830"/>
      <point x="282" y="829" type="curve" smooth="yes"/>
      <point x="261" y="828"/>
      <point x="191" y="856"/>
      <point x="166" y="855" type="curve"/>
      <point x="151" y="851" type="line"/>
      <point x="87" y="745" type="line"/>
      <point x="88" y="731" type="line"/>
    </contour>
  </outline>
</glyph>
<glyph name="psilivaria.case" format="2">
  <advance width="458"/>
  <guideline x="272" y="771" angle="0"/>
  <guideline x="269" y="508" angle="0"/>
  <anchor x="226" y="472" name="_top"/>
  <anchor x="314" y="723" name="_topleft"/>
  <anchor x="222" y="764" name="top"/>
  <outline>
    <contour>
      <point x="330" y="509" type="line"/>
      <point x="394" y="529" type="line"/>
      <point x="386" y="600"/>
      <point x="384" y="679"/>
      <point x="378" y="754" type="curve"/>
      <point x="366" y="764" type="line"/>
      <point x="249" y="735" type="line"/>
      <point x="241" y="721" type="line"/>
      <point x="309" y="518" type="line"/>
    </contour>
    <contour>
      <point x="112" y="503" type="line"/>
      <point x="183" y="557"/>
      <point x="222" y="624"/>
      <point x="217" y="682" type="curve" smooth="yes"/>
      <point x="213" y="728"/>
      <point x="182" y="755"/>
      <point x="138" y="751" type="curve" smooth="yes"/>
      <point x="113" y="749"/>
      <point x="70" y="724"/>
      <point x="49" y="700" type="curve"/>
      <point x="49" y="689" type="line"/>
      <point x="76" y="673"/>
      <point x="91" y="654"/>
      <point x="93" y="632" type="curve" smooth="yes"/>
      <point x="95" y="606"/>
      <point x="82" y="577"/>
      <point x="56" y="548" type="curve"/>
      <point x="60" y="528" type="line"/>
    </contour>
  </outline>
</glyph>
<glyph name="questiondown.sc" format="2">
  <advance width="332"/>
  <outline>
    <contour>
      <point x="240" y="336" type="line"/>
      <point x="139" y="321" type="line"/>
      <point x="130" y="309" type="line"/>
      <point x="140" y="264" type="line"/>
      <point x="137" y="260" type="line"/>
      <point x="36" y="209"/>
      <point x="5" y="177"/>
      <point x="5" y="125" type="curve" smooth="yes"/>
      <point x="5" y="47"/>
      <point x="104" y="-7"/>
      <point x="249" y="-10" type="curve"/>
      <point x="263" y="-4" type="line"/>
      <point x="306" y="91" type="line"/>
      <point x="298" y="104" type="line"/>
      <point x="199" y="116"/>
      <point x="154" y="132"/>
      <point x="154" y="154" type="curve" smooth="yes"/>
      <point x="154" y="168"/>
      <point x="166" y="177"/>
      <point x="194" y="189" type="curve" smooth="yes"/>
      <point x="271" y="221" type="line"/>
      <point x="271" y="232" type="line"/>
      <point x="252" y="330" type="line"/>
    </contour>
    <contour>
      <point x="194" y="512" type="curve" smooth="yes"/>
      <point x="137" y="512"/>
      <point x="103" y="482"/>
      <point x="103" y="429" type="curve" smooth="yes"/>
      <point x="103" y="379"/>
      <point x="132" y="351"/>
      <point x="186" y="352" type="curve" smooth="yes"/>
      <point x="241" y="353"/>
      <point x="275" y="383"/>
      <point x="276" y="435" type="curve" smooth="yes"/>
      <point x="277" y="485"/>
      <point x="247" y="512"/>
    </contour>
  </outline>
</glyph>
<glyph name="tildecomb_acutecomb.case" format="2">
  <anchor x="199" y="647" name="_top"/>
  <anchor x="199" y="1055" name="top"/>
  <outline>
    <contour>
      <point x="71" y="675" type="line"/>
      <point x="86" y="675" type="line"/>
      <point x="86" y="675"/>
      <point x="125" y="729"/>
      <point x="148" y="729" type="curve" smooth="yes"/>
      <point x="176" y="729"/>
      <point x="259" y="697"/>
      <point x="291" y="697" type="curve"/>
      <point x="307" y="701" type="line"/>
      <point x="382" y="808" type="line"/>
      <point x="382" y="822" type="line"/>
      <point x="327" y="872" type="line"/>
      <point x="312" y="872" type="line"/>
      <point x="312" y="872"/>
      <point x="272" y="819"/>
      <point x="250" y="819" type="curve" smooth="yes"/>
      <point x="222" y="819"/>
      <point x="140" y="850"/>
      <point x="108" y="850" type="curve"/>
      <point x="92" y="846" type="line"/>
      <point x="17" y="740" type="line"/>
      <point x="17" y="725" type="line"/>
    </contour>
    <contour>
      <point x="87" y="871" type="line"/>
      <point x="211" y="902"/>
      <point x="341" y="926"/>
      <point x="341" y="926" type="curve"/>
      <point x="348" y="942" type="line"/>
      <point x="312" y="1050" type="line"/>
      <point x="296" y="1055" type="line"/>
      <point x="296" y="1055"/>
      <point x="170" y="1001"/>
      <point x="47" y="955" type="curve"/>
      <point x="68" y="884" type="line"/>
    </contour>
  </outline>
</glyph>
<glyph name="tildecomb_acutecomb" format="2">
  <anchor x="199" y="472" name="_top"/>
  <anchor x="199" y="883" name="top"/>
  <outline>
    <contour>
      <point x="71" y="503" type="line"/>
      <point x="86" y="503" type="line"/>
      <point x="86" y="503"/>
      <point x="125" y="557"/>
      <point x="148" y="557" type="curve" smooth="yes"/>
      <point x="176" y="557"/>
      <point x="259" y="525"/>
      <point x="291" y="525" type="curve"/>
      <point x="307" y="529" type="line"/>
      <point x="382" y="636" type="line"/>
      <point x="382" y="650" type="line"/>
      <point x="327" y="700" type="line"/>
      <point x="312" y="700" type="line"/>
      <point x="312" y="700"/>
      <point x="272" y="647"/>
      <point x="250" y="647" type="curve" smooth="yes"/>
      <point x="222" y="647"/>
      <point x="140" y="678"/>
      <point x="108" y="678" type="curve"/>
      <point x="92" y="674" type="line"/>
      <point x="17" y="568" type="line"/>
      <point x="17" y="553" type="line"/>
    </contour>
    <contour>
      <point x="87" y="699" type="line"/>
      <point x="211" y="730"/>
      <point x="341" y="754"/>
      <point x="341" y="754" type="curve"/>
      <point x="348" y="770" type="line"/>
      <point x="312" y="878" type="line"/>
      <point x="296" y="883" type="line"/>
      <point x="296" y="883"/>
      <point x="170" y="829"/>
      <point x="47" y="783" type="curve"/>
      <point x="68" y="712" type="line"/>
    </contour>
  </outline>
</glyph>
<glyph name="tildecomb_dieresiscomb.case" format="2">
  <outline>
    <contour>
      <point x="56" y="673" type="line"/>
      <point x="71" y="673" type="line"/>
      <point x="71" y="673"/>
      <point x="110" y="727"/>
      <point x="133" y="727" type="curve" smooth="yes"/>
      <point x="161" y="727"/>
      <point x="244" y="695"/>
      <point x="276" y="695" type="curve"/>
      <point x="292" y="699" type="line"/>
      <point x="367" y="806" type="line"/>
      <point x="367" y="820" type="line"/>
      <point x="312" y="870" type="line"/>
      <point x="297" y="870" type="line"/>
      <point x="297" y="870"/>
      <point x="257" y="817"/>
      <point x="235" y="817" type="curve" smooth="yes"/>
      <point x="207" y="817"/>
      <point x="125" y="848"/>
      <point x="93" y="848" type="curve"/>
      <point x="77" y="844" type="line"/>
      <point x="2" y="738" type="line"/>
      <point x="2" y="723" type="line"/>
    </contour>
    <contour>
      <point x="273" y="882" type="curve" smooth="yes"/>
      <point x="321" y="882"/>
      <point x="352" y="913"/>
      <point x="352" y="962" type="curve" smooth="yes"/>
      <point x="352" y="1009"/>
      <point x="325" y="1036"/>
      <point x="279" y="1036" type="curve" smooth="yes"/>
      <point x="230" y="1036"/>
      <point x="199" y="1005"/>
      <point x="199" y="956" type="curve" smooth="yes"/>
      <point x="199" y="908"/>
      <point x="225" y="882"/>
    </contour>
    <contour>
      <point x="95" y="882" type="curve" smooth="yes"/>
      <point x="144" y="882"/>
      <point x="174" y="913"/>
      <point x="174" y="962" type="curve" smooth="yes"/>
      <point x="174" y="1009"/>
      <point x="147" y="1036"/>
      <point x="101" y="1036" type="curve" smooth="yes"/>
      <point x="52" y="1036"/>
      <point x="21" y="1005"/>
      <point x="21" y="956" type="curve" smooth="yes"/>
      <point x="21" y="908"/>
      <point x="47" y="882"/>
    </contour>
    <component base="dieresiscomb" xScale="0.9246" yScale="0.9246" xOffset="3" yOffset="365"/>
  </outline>
</glyph>
<glyph name="tildecomb_dieresiscomb" format="2">
  <outline>
    <contour>
      <point x="56" y="486" type="line"/>
      <point x="71" y="486" type="line"/>
      <point x="71" y="486"/>
      <point x="110" y="540"/>
      <point x="133" y="540" type="curve" smooth="yes"/>
      <point x="161" y="540"/>
      <point x="244" y="508"/>
      <point x="276" y="508" type="curve"/>
      <point x="292" y="512" type="line"/>
      <point x="367" y="619" type="line"/>
      <point x="367" y="633" type="line"/>
      <point x="312" y="683" type="line"/>
      <point x="297" y="683" type="line"/>
      <point x="297" y="683"/>
      <point x="257" y="630"/>
      <point x="235" y="630" type="curve" smooth="yes"/>
      <point x="207" y="630"/>
      <point x="125" y="661"/>
      <point x="93" y="661" type="curve"/>
      <point x="77" y="657" type="line"/>
      <point x="2" y="551" type="line"/>
      <point x="2" y="536" type="line"/>
    </contour>
    <contour>
      <point x="270" y="695" type="curve" smooth="yes"/>
      <point x="318" y="695"/>
      <point x="349" y="726"/>
      <point x="349" y="775" type="curve" smooth="yes"/>
      <point x="349" y="822"/>
      <point x="322" y="849"/>
      <point x="276" y="849" type="curve" smooth="yes"/>
      <point x="227" y="849"/>
      <point x="196" y="818"/>
      <point x="196" y="769" type="curve" smooth="yes"/>
      <point x="196" y="721"/>
      <point x="222" y="695"/>
    </contour>
    <contour>
      <point x="92" y="695" type="curve" smooth="yes"/>
      <point x="141" y="695"/>
      <point x="171" y="726"/>
      <point x="171" y="775" type="curve" smooth="yes"/>
      <point x="171" y="822"/>
      <point x="144" y="849"/>
      <point x="98" y="849" type="curve" smooth="yes"/>
      <point x="49" y="849"/>
      <point x="18" y="818"/>
      <point x="18" y="769" type="curve" smooth="yes"/>
      <point x="18" y="721"/>
      <point x="44" y="695"/>
    </contour>
    <component base="dieresiscomb" xScale="0.9246" yScale="0.9246" yOffset="178"/>
  </outline>
</glyph>
<glyph name="tildecomb_macroncomb" format="2">
  <anchor x="199" y="472" name="_top"/>
  <anchor x="199" y="869" name="top"/>
  <outline>
    <contour>
      <point x="71" y="503" type="line"/>
      <point x="86" y="503" type="line"/>
      <point x="86" y="503"/>
      <point x="125" y="557"/>
      <point x="148" y="557" type="curve" smooth="yes"/>
      <point x="176" y="557"/>
      <point x="259" y="525"/>
      <point x="291" y="525" type="curve"/>
      <point x="307" y="529" type="line"/>
      <point x="382" y="636" type="line"/>
      <point x="382" y="650" type="line"/>
      <point x="327" y="700" type="line"/>
      <point x="312" y="700" type="line"/>
      <point x="312" y="700"/>
      <point x="272" y="647"/>
      <point x="250" y="647" type="curve" smooth="yes"/>
      <point x="222" y="647"/>
      <point x="140" y="678"/>
      <point x="108" y="678" type="curve"/>
      <point x="92" y="674" type="line"/>
      <point x="17" y="568" type="line"/>
      <point x="17" y="553" type="line"/>
    </contour>
    <contour>
      <point x="61" y="724" type="line"/>
      <point x="61" y="724"/>
      <point x="136" y="725"/>
      <point x="195" y="725" type="curve" smooth="yes"/>
      <point x="335" y="726" type="line"/>
      <point x="353" y="835" type="line"/>
      <point x="342" y="853" type="line"/>
      <point x="342" y="853"/>
      <point x="268" y="847"/>
      <point x="218" y="847" type="curve" smooth="yes"/>
      <point x="159" y="847"/>
      <point x="64" y="848"/>
      <point x="64" y="848" type="curve"/>
      <point x="45" y="739" type="line"/>
    </contour>
  </outline>
</glyph>
